<svg width="363" height="79" viewBox="0 0 363 79" fill="none" xmlns="http://www.w3.org/2000/svg">
<path d="M167.287 59.52C181.879 60.48 188.407 49.92 187.447 36.48C186.871 25.92 182.647 19.776 174.199 19.776C172.087 19.776 169.591 20.352 165.943 21.696C164.983 27.84 164.407 35.328 164.407 42.24C164.407 48 164.983 54.912 165.751 59.328L167.287 59.52ZM148.087 38.976C148.087 27.456 148.855 15.936 150.583 7.296C158.647 4.608 165.751 3.456 172.471 3.456C192.631 3.456 203.959 16.128 204.343 35.52C204.919 59.712 191.863 75.072 165.943 75.072C161.335 75.072 156.151 74.592 150.487 73.536C148.951 64.8 148.087 51.936 148.087 38.976Z" fill="black"/>
<path d="M216.629 74.88C211.733 74.88 207.029 74.4 202.613 73.632C201.941 69.888 201.461 60.96 201.461 50.688C201.461 34.944 202.421 16.128 205.109 6.528C208.757 5.376 220.277 4.032 233.141 4.032C237.941 4.032 243.701 4.416 248.501 4.992C249.653 7.296 250.421 10.368 250.421 13.248C250.421 16.32 250.037 19.392 249.077 21.888C244.085 20.352 234.293 18.816 226.229 18.816C224.693 18.816 221.429 19.2 218.357 19.392C217.205 23.616 216.629 30.336 217.205 33.408C221.045 32.832 224.117 32.448 226.037 32.448C229.301 32.448 232.757 32.832 235.061 33.216C235.445 34.368 235.445 35.712 235.445 37.248C235.445 39.744 234.869 43.008 234.485 45.12C228.533 45.12 224.309 45.12 217.205 47.04C217.013 50.304 217.781 55.872 218.357 57.984C228.149 57.6 238.901 55.104 247.157 51.648C249.845 54.528 252.533 61.44 251.381 66.624C241.589 72.576 228.917 74.88 216.629 74.88Z" fill="black"/>
<path d="M296.937 75.264L296.553 72.96V72.768C295.593 68.544 293.865 61.056 292.521 56.064C285.993 58.176 278.505 59.904 268.521 60.864C268.329 64.032 268.233 67.872 268.137 70.848C266.121 71.328 263.337 71.616 260.457 71.616C256.809 71.616 252.969 71.232 250.665 70.272C251.817 53.376 259.497 14.112 265.449 3.072C268.329 1.536 273.705 0 279.849 0C281.769 0 284.265 0.384001 286.377 0.768002C297.321 11.328 311.145 49.728 315.753 68.544C312.105 71.808 304.809 74.88 296.937 75.264ZM269.865 48.192L272.553 47.424C276.969 46.08 281.577 44.736 288.489 42.24C285.609 33.408 281.577 24.192 276.969 16.512C272.937 26.688 271.401 35.52 270.057 45.312L269.865 48.192Z" fill="black"/>
<path d="M312.097 73.536C310.849 66.144 310.177 50.304 310.177 35.712C310.177 23.808 310.561 12.48 311.905 7.104C314.785 6.144 320.545 5.376 326.305 5.376C328.225 5.376 329.761 5.376 331.873 5.76C328.225 21.12 326.881 37.056 326.881 47.424C326.881 52.416 327.265 56.448 328.225 59.136C341.473 59.136 350.881 56.832 357.985 54.144C360.865 57.792 362.977 66.048 361.633 71.232C353.953 73.92 343.009 74.88 333.217 74.88C324.097 74.88 315.937 74.112 312.097 73.536Z" fill="black"/>
<path d="M136.015 78.12C130.159 78.12 125.551 73.416 125.551 67.656C125.551 61.8 130.159 57.192 136.015 57.192C141.871 57.192 146.479 61.8 146.479 67.656C146.479 73.416 141.871 78.12 136.015 78.12ZM124.207 9.096C127.951 7.176 139.951 5.736 142.159 6.792C142.639 13.608 140.815 47.88 140.047 53.064L130.351 53.64C130.831 47.208 126.415 21.384 124.207 9.096Z" fill="#2E8EFF"/>
<path d="M30.7269 74.728C14.2149 74.728 0.390878 64.168 0.00687802 41.32C-0.185122 28.648 3.65488 12.52 9.99088 2.92C14.9829 3.112 21.3189 4.072 24.7749 6.184C21.3189 13.288 16.7109 25.384 16.7109 37.672C16.7109 40.552 17.0949 44.008 17.6709 46.504C19.2069 53.416 24.7749 58.792 31.3029 58.024C38.0229 57.448 42.2469 52.648 43.3989 45.16C45.1269 32.296 39.5589 16.744 35.3349 7.336C38.9829 5.8 46.6629 4.456 51.6549 4.84C58.3749 17.128 62.2149 30.568 62.2149 42.088C62.2149 60.136 52.9989 74.728 30.7269 74.728Z" fill="black"/>
<path d="M61.8766 76.264C60.1486 67.048 59.3806 52.648 59.3806 39.016C59.3806 26.728 60.1486 15.208 61.4926 8.488C64.3726 7.336 69.1726 5.992 73.5886 5.992C75.1246 5.992 76.8526 6.376 78.1966 6.568L81.4606 11.752C87.6046 22.312 97.5886 39.88 104.501 53.704V46.888C104.501 37.288 103.541 29.992 102.581 22.312C101.813 15.976 100.949 9.64 100.565 1.768C102.485 1.384 105.173 1.192 108.149 1.192C112.181 1.192 116.981 1.96 120.437 3.304C121.205 12.328 121.781 27.688 121.781 42.664C121.781 54.76 121.205 66.664 119.861 74.152C117.365 75.496 110.645 76.072 104.309 76.072C101.045 76.072 98.1646 75.88 95.6686 75.304L94.1326 71.848C89.9086 62.056 84.1486 47.656 76.0846 35.368C75.3166 43.048 75.3166 45.352 75.3166 47.656C75.3166 56.872 76.2766 68.008 77.4286 73.576C73.9726 75.112 67.6366 76.648 61.8766 76.264Z" fill="black"/>
</svg>
