<svg width="27" height="27" viewBox="0 0 27 27" fill="none" xmlns="http://www.w3.org/2000/svg">
<circle cx="13.5" cy="13.5" r="13" fill="#2E8EFF" stroke="#2E8EFF"/>
<path d="M12 21C12 21.5523 12.4477 22 13 22C13.5523 22 14 21.5523 14 21L12 21ZM13.7071 6.29289C13.3166 5.90237 12.6834 5.90237 12.2929 6.29289L5.92893 12.6569C5.53841 13.0474 5.53841 13.6805 5.92893 14.0711C6.31946 14.4616 6.95262 14.4616 7.34315 14.0711L13 8.41421L18.6569 14.0711C19.0474 14.4616 19.6805 14.4616 20.0711 14.0711C20.4616 13.6805 20.4616 13.0474 20.0711 12.6569L13.7071 6.29289ZM13 21L14 21L14 7L13 7L12 7L12 21L13 21Z" fill="white"/>
</svg>
